<?xml version="1.0" standalone="no"?>
<!DOCTYPE svg PUBLIC "-//W3C//DTD SVG 20010904//EN"
 "http://www.w3.org/TR/2001/REC-SVG-20010904/DTD/svg10.dtd">
<svg version="1.0" xmlns="http://www.w3.org/2000/svg"
 width="300.000000pt" height="300.000000pt" viewBox="0 0 300.000000 300.000000"
 preserveAspectRatio="xMidYMid meet">
<metadata>
Created by potrace 1.10, written by Peter Selinger 2001-2011
</metadata>
<g transform="translate(0.000000,300.000000) scale(0.100000,-0.100000)"
fill="#000000" stroke="none">
<path d="M1297 2459 c-188 -38 -349 -126 -493 -266 -190 -186 -287 -419 -286
-693 0 -130 15 -222 54 -333 31 -85 34 -62 4 31 -40 126 -49 201 -43 346 4
101 11 151 31 219 105 351 378 606 732 683 103 22 292 22 396 0 221 -47 439
-187 570 -364 49 -66 110 -179 137 -252 78 -216 73 -485 -14 -693 -4 -9 -3
-17 2 -17 5 0 19 30 31 67 120 357 22 759 -247 1015 -187 179 -392 265 -651
273 -99 4 -145 0 -223 -16z"/>
<path d="M1395 2434 c-214 -32 -375 -104 -527 -238 -261 -228 -370 -601 -277
-946 11 -41 24 -82 29 -90 13 -22 23 -5 11 19 -29 54 -54 199 -55 316 -1 181
39 327 132 483 249 416 803 564 1227 327 214 -120 385 -338 445 -570 43 -165
35 -383 -21 -533 -14 -38 -16 -53 -7 -50 7 3 23 40 35 83 99 344 7 695 -245
937 -125 121 -252 191 -422 234 -91 24 -258 38 -325 28z"/>
<path d="M1335 2141 c-143 -40 -235 -94 -333 -199 -59 -63 -132 -202 -153
-292 -19 -79 -17 -242 5 -315 28 -95 66 -173 87 -178 24 -7 24 -7 -10 61 -49
96 -65 166 -65 282 0 181 55 311 189 446 122 123 265 184 436 184 332 0 607
-258 626 -591 8 -138 -13 -222 -95 -381 -2 -3 7 -4 19 -1 27 7 75 109 95 202
46 220 -19 444 -176 602 -130 131 -258 187 -445 195 -88 3 -124 0 -180 -15z"/>
<path d="M1415 2080 c-144 -23 -238 -71 -340 -174 -122 -123 -171 -254 -163
-436 6 -112 27 -187 77 -267 l26 -43 477 0 478 0 30 53 c52 90 73 170 73 282
0 195 -71 343 -226 469 -110 89 -294 139 -432 116z m55 -28 c0 -9 74 -7 89 3
6 3 11 2 11 -3 0 -5 8 -9 18 -9 24 1 104 -23 120 -35 6 -6 12 -7 12 -3 0 5 8
1 18 -8 10 -10 22 -14 25 -10 4 3 7 1 7 -6 0 -8 6 -11 16 -7 8 3 13 2 10 -2
-3 -5 13 -24 36 -43 22 -19 52 -45 66 -59 15 -13 30 -24 34 -23 3 1 5 -5 4
-15 -2 -9 2 -22 8 -28 27 -29 46 -55 46 -64 0 -6 5 -10 10 -10 6 0 10 -13 10
-29 0 -17 4 -32 10 -36 5 -3 6 -13 3 -22 -5 -12 -3 -14 7 -8 10 6 11 4 4 -6
-5 -8 -9 -17 -10 -21 -1 -5 -2 -11 -3 -15 0 -5 -12 5 -25 20 -14 16 -30 26
-35 22 -6 -3 -11 -2 -11 4 0 5 -10 12 -22 16 -26 7 -46 15 -101 39 -23 10 -36
12 -31 5 4 -8 3 -9 -4 -5 -21 12 -55 19 -192 36 -105 14 -393 8 -413 -8 -7 -5
-23 -8 -37 -6 -28 3 -104 -22 -135 -44 -19 -14 -19 -14 5 -8 137 34 375 50
535 36 151 -13 202 -22 308 -57 85 -27 157 -83 157 -121 0 -58 -113 -122 -280
-159 -70 -15 -128 -18 -330 -18 -217 1 -256 3 -339 23 -52 12 -96 20 -99 18
-9 -9 9 -25 22 -20 8 3 17 0 22 -7 5 -8 3 -10 -6 -4 -9 5 -11 4 -6 -3 4 -7 20
-10 37 -7 17 3 28 2 25 -4 -3 -5 7 -9 22 -9 65 0 99 -19 87 -49 -4 -10 -7 -37
-6 -60 l3 -43 -59 0 c-32 0 -65 6 -74 13 -22 16 -71 115 -74 147 -1 14 -7 35
-14 48 -6 12 -9 22 -5 22 3 0 2 6 -3 13 -12 15 -8 177 4 186 5 3 8 15 8 26 0
11 3 25 6 30 4 6 12 27 18 48 7 20 21 42 32 48 13 7 18 17 14 28 -4 14 16 38
79 96 101 93 126 110 191 131 28 8 57 18 65 21 8 3 24 8 34 10 11 2 21 5 22 6
7 6 54 6 54 -1z m561 -638 c-4 -22 -7 -48 -5 -57 1 -10 -1 -15 -6 -12 -4 3
-11 -2 -14 -11 -3 -8 -2 -12 4 -9 12 7 14 -8 3 -19 -5 -4 -8 -11 -9 -14 -3
-23 -27 -64 -51 -86 -27 -26 -30 -26 -173 -26 l-146 0 -2 26 c-1 15 3 33 9 40
9 10 9 14 0 14 -18 0 -13 48 7 58 9 5 29 8 45 6 15 -1 27 2 27 8 0 5 7 8 15 5
8 -4 17 -2 20 3 4 7 13 6 25 0 13 -7 21 -6 30 5 7 8 15 14 18 13 4 -1 14 1 22
4 8 3 35 12 59 19 24 7 62 28 84 45 23 18 42 32 43 31 1 -1 -1 -20 -5 -43z
m-694 -126 c45 -42 14 -98 -56 -98 -42 0 -91 31 -91 58 0 56 101 84 147 40z
m251 6 c30 -20 30 -68 0 -88 -35 -25 -94 -20 -123 9 -14 13 -25 29 -25 35 0 6
11 22 25 35 29 29 88 34 123 9z m-172 -28 c-4 -20 -2 -37 4 -41 5 -3 10 -15
10 -26 0 -31 -45 -26 -48 6 -1 14 3 25 8 25 6 0 6 9 0 26 -14 37 -13 44 11 44
19 0 20 -4 15 -34z"/>
<path d="M1014 1641 c5 -8 72 -20 151 -27 22 -2 58 -6 80 -9 22 -4 58 -8 80
-10 88 -9 129 -16 135 -23 3 -4 16 -8 30 -10 14 -2 35 -8 47 -14 31 -15 14
-44 -32 -52 -20 -4 -34 -10 -31 -14 2 -4 -13 -7 -35 -6 -21 0 -39 -3 -39 -8 0
-4 -16 -6 -35 -3 -20 2 -33 1 -31 -4 3 -4 -3 -8 -12 -9 -24 -3 -90 -3 -99 0
-5 1 -26 -4 -48 -10 -22 -7 -66 -12 -97 -12 -31 0 -69 -5 -85 -12 l-28 -12 30
-4 c49 -6 312 18 424 39 103 20 149 37 183 66 57 51 -97 106 -371 133 -126 12
-224 13 -217 1z"/>
<path d="M640 1132 c0 -5 383 -9 850 -10 531 -1 850 3 850 8 0 6 -319 10 -850
10 -467 0 -850 -4 -850 -8z"/>
<path d="M709 991 c-21 -22 -29 -39 -29 -66 0 -50 44 -95 94 -95 19 0 37 3 40
8 2 4 -14 7 -36 7 -31 0 -45 6 -64 28 -13 16 -24 39 -24 53 0 34 51 84 85 84
32 0 85 -49 85 -78 0 -29 -11 -53 -21 -46 -5 3 -9 2 -9 -1 0 -9 54 -54 65 -54
6 0 0 8 -11 18 -18 15 -21 25 -17 64 5 41 2 49 -25 77 -42 41 -92 42 -133 1z"/>
<path d="M910 944 c0 -81 11 -114 38 -114 16 1 16 1 0 11 -15 8 -18 25 -18 94
0 50 -4 85 -10 85 -6 0 -10 -32 -10 -76z"/>
<path d="M1030 935 c0 -69 -3 -86 -17 -94 -17 -10 -17 -10 -1 -11 10 0 22 9
28 19 13 25 13 171 0 171 -6 0 -10 -35 -10 -85z"/>
<path d="M1263 1013 c-7 -2 -13 -9 -13 -14 0 -6 9 -5 21 2 21 11 42 9 84 -6
20 -7 20 -6 1 9 -19 15 -67 20 -93 9z"/>
<path d="M1390 925 c0 -57 4 -95 10 -95 6 0 10 14 10 31 0 23 13 46 55 92 67
76 64 89 -4 16 l-50 -54 -1 53 c0 28 -4 52 -10 52 -6 0 -10 -38 -10 -95z"/>
<path d="M1643 1013 c-7 -2 -13 -9 -13 -14 0 -6 9 -5 21 2 21 11 42 9 84 -6
20 -7 20 -6 1 9 -19 15 -67 20 -93 9z"/>
<path d="M1813 925 c-23 -52 -38 -95 -33 -95 5 0 14 16 21 35 11 29 18 35 44
36 28 2 29 2 3 6 l-26 4 16 39 c10 22 20 40 23 40 4 0 21 -36 40 -80 18 -44
36 -80 41 -80 5 0 2 15 -6 33 -49 114 -69 157 -75 157 -3 0 -25 -43 -48 -95z"/>
<path d="M2012 1011 c79 -9 108 -48 72 -99 -32 -45 -104 -17 -104 41 0 15 -4
27 -10 27 -6 0 -10 -32 -10 -75 0 -48 4 -75 11 -75 7 0 10 14 7 35 -2 19 -2
35 0 35 2 0 27 -16 54 -36 27 -20 51 -34 54 -31 3 3 -4 10 -15 17 -24 12 -28
30 -7 30 21 0 46 39 46 70 0 45 -38 70 -101 69 l-54 -2 57 -6z"/>
<path d="M2178 1013 c23 -2 61 -2 85 0 23 2 4 4 -43 4 -47 0 -66 -2 -42 -4z"/>
<path d="M1122 913 c-2 -70 -3 -72 -29 -76 -16 -2 -1 -4 32 -4 33 0 48 2 33 4
-26 4 -27 7 -31 76 l-3 72 -2 -72z"/>
<path d="M2210 905 c0 -43 4 -75 10 -75 6 0 10 32 10 75 0 43 -4 75 -10 75 -6
0 -10 -32 -10 -75z"/>
<path d="M1217 963 c-4 -3 -7 -22 -7 -40 0 -42 46 -93 82 -92 20 1 19 2 -9 15
-44 19 -67 56 -59 94 6 31 4 35 -7 23z"/>
<path d="M1597 963 c-4 -3 -7 -22 -7 -40 0 -41 46 -93 82 -93 20 1 18 3 -12
18 -41 20 -62 57 -54 95 6 27 3 33 -9 20z"/>
<path d="M1450 894 c0 -6 14 -23 30 -39 17 -16 30 -24 30 -19 0 6 -13 23 -30
39 -16 16 -30 24 -30 19z"/>
<path d="M640 720 c0 -7 290 -10 850 -10 560 0 850 3 850 10 0 7 -290 10 -850
10 -560 0 -850 -3 -850 -10z"/>
<path d="M955 685 c38 -32 194 -105 266 -125 269 -74 562 -32 794 114 55 35
34 33 -29 -3 -84 -48 -216 -98 -305 -116 -66 -14 -115 -16 -225 -12 -173 7
-252 26 -396 99 -120 60 -133 66 -105 43z"/>
<path d="M1060 671 c249 -136 605 -137 860 -1 77 41 44 37 -50 -5 -132 -60
-216 -77 -370 -78 -159 0 -245 16 -363 69 -104 46 -151 55 -77 15z"/>
</g>
</svg>
