<svg xmlns="http://www.w3.org/2000/svg" xmlns:xlink="http://www.w3.org/1999/xlink" width="100" zoomAndPan="magnify" viewBox="0 0 375 374.999991" height="100" preserveAspectRatio="xMidYMid meet" version="1.0"><defs><g/><clipPath id="5e0a6100e5"><path d="M 79 82 L 296 82 L 296 300 L 79 300 Z M 79 82 " clip-rule="nonzero"/></clipPath><clipPath id="a54f98371a"><path d="M 233.078125 44.78125 L 332.683594 240.664062 L 142.152344 337.546875 L 42.546875 141.667969 Z M 233.078125 44.78125 " clip-rule="nonzero"/></clipPath><clipPath id="0a0e427983"><path d="M 233.078125 44.78125 L 332.683594 240.664062 L 142.152344 337.546875 L 42.546875 141.667969 Z M 233.078125 44.78125 " clip-rule="nonzero"/></clipPath><clipPath id="190eb4c02e"><path d="M 267.824219 120.898438 C 227.867188 75.238281 159.320312 69.632812 115.019531 108.402344 C 105.449219 116.773438 97.6875 126.734375 91.75 137.902344 L 92.035156 138.050781 L 91.75 137.902344 C 81.585938 157.035156 77.574219 178.765625 80.140625 200.738281 C 82.765625 223.203125 92.128906 244.191406 107.222656 261.441406 C 147.144531 307.054688 215.625 312.65625 259.875 273.929688 C 304.179688 235.160156 307.78125 166.554688 267.824219 120.898438 Z M 103.417969 240.941406 C 105.109375 242.871094 106.585938 244.382812 107.695312 245.457031 C 115.109375 252.621094 125.355469 253.171875 136.203125 253.75 C 148.734375 254.417969 162.9375 255.179688 175.148438 266.539062 C 185.484375 276.160156 195.640625 284.582031 207.121094 288.410156 C 195.480469 284.945312 185.238281 277.050781 175.164062 268.289062 C 163.019531 257.71875 149.128906 256.511719 136.871094 255.441406 C 125.875 254.484375 115.484375 253.578125 107.980469 246.199219 C 101.289062 239.617188 95 231.078125 90.195312 221.074219 C 94.53125 229.832031 99.535156 236.503906 103.417969 240.941406 Z M 98.679688 234.085938 C 100.191406 236.121094 101.660156 237.917969 103 239.449219 C 104.882812 241.601562 106.523438 243.25 107.726562 244.390625 C 114.957031 251.246094 125.011719 251.445312 135.65625 251.652344 C 148.515625 251.90625 163.082031 252.191406 175.425781 264.445312 C 185.558594 274.511719 194.960938 283.238281 206.171875 287.585938 C 195.191406 283.628906 185.40625 275.484375 175.445312 266.214844 C 163.117188 254.746094 148.828125 253.980469 136.222656 253.308594 C 125.460938 252.734375 115.296875 252.191406 108 245.140625 C 106.765625 243.941406 103.003906 240.132812 98.679688 234.085938 Z M 174.882812 270.359375 C 162.960938 260.683594 149.496094 259.0625 137.621094 257.628906 C 126.347656 256.273438 115.703125 254.988281 107.964844 247.253906 C 101.941406 241.234375 96.253906 233.609375 91.671875 224.78125 C 95.78125 232.484375 100.292969 238.398438 103.796875 242.40625 C 105.3125 244.136719 106.640625 245.511719 107.664062 246.519531 C 115.285156 254.011719 125.753906 254.925781 136.832031 255.890625 C 149.015625 256.953125 162.832031 258.15625 174.867188 268.625 C 185.21875 277.632812 195.742188 285.722656 207.765625 289.085938 C 195.558594 286.089844 184.9375 278.515625 174.882812 270.355469 Z M 208.160156 289.679688 C 195.460938 287.128906 184.523438 279.917969 174.597656 272.429688 C 162.957031 263.644531 150.519531 261.738281 138.492188 259.890625 C 126.902344 258.117188 115.957031 256.4375 107.941406 248.316406 C 101.933594 242.21875 96.265625 234.535156 91.6875 225.667969 C 95.933594 233.683594 100.597656 239.792969 104.148438 243.851562 C 105.5 245.398438 106.691406 246.648438 107.636719 247.589844 C 115.492188 255.4375 126.214844 256.730469 137.566406 258.097656 C 149.960938 259.589844 162.773438 261.136719 174.589844 270.722656 C 184.839844 279.039062 195.671875 286.753906 208.160156 289.683594 Z M 104.273438 245.070312 C 105.355469 246.308594 106.46875 247.503906 107.597656 248.652344 C 115.726562 256.886719 126.75 258.578125 138.417969 260.367188 C 150.386719 262.203125 162.765625 264.101562 174.308594 272.8125 C 183.589844 279.816406 194.632812 287.167969 207.1875 289.992188 C 195.246094 287.734375 184.464844 281.605469 174.3125 274.5 C 163.019531 266.597656 151.074219 264.386719 139.519531 262.242188 C 127.550781 260.023438 116.246094 257.925781 107.921875 249.375 C 101.332031 242.609375 95.140625 233.960938 90.359375 223.917969 C 94.125 231.660156 98.855469 238.882812 104.273438 245.074219 Z M 104.570312 246.464844 C 105.546875 247.582031 106.546875 248.667969 107.570312 249.714844 C 116.003906 258.382812 127.386719 260.492188 139.433594 262.726562 C 150.9375 264.855469 162.824219 267.0625 174.035156 274.90625 C 183.789062 281.730469 196.898438 289.761719 211.789062 291.261719 C 212.464844 291.332031 213.144531 291.371094 213.820312 291.410156 C 199.140625 290.914062 186.15625 284.40625 174.035156 276.570312 C 163.164062 269.542969 151.773438 267.082031 140.757812 264.699219 C 128.335938 262.011719 116.597656 259.472656 107.90625 250.429688 C 101.472656 243.734375 95.421875 235.246094 90.679688 225.425781 C 94.457031 233.117188 99.175781 240.296875 104.574219 246.464844 Z M 105.78125 253.230469 C 106.320312 253.839844 106.863281 254.445312 107.410156 255.042969 C 118.652344 267.25 133.554688 271.96875 149.332031 276.964844 C 156.996094 279.394531 164.925781 281.902344 172.660156 285.367188 C 188.273438 292.359375 203.078125 295.023438 217.277344 293.351562 C 203.113281 295.375 188.289062 293.222656 172.597656 286.925781 C 166.316406 284.40625 159.910156 282.296875 153.710938 280.253906 C 136.40625 274.554688 120.0625 269.167969 107.800781 255.726562 C 105.007812 252.667969 102.351562 249.324219 99.863281 245.757812 C 101.726562 248.351562 103.695312 250.851562 105.777344 253.234375 Z M 99.351562 244.015625 C 101.285156 246.746094 103.351562 249.367188 105.53125 251.859375 C 106.15625 252.574219 106.796875 253.285156 107.441406 253.980469 C 117.847656 265.171875 131.660156 269.265625 146.28125 273.613281 C 155.050781 276.21875 164.125 278.910156 172.933594 283.273438 C 186.152344 289.824219 198.613281 293.148438 210.625 293.242188 C 198.539062 293.523438 186 290.726562 172.886719 284.859375 C 165.121094 281.378906 157.179688 278.867188 149.503906 276.433594 C 133.796875 271.460938 118.964844 266.765625 107.824219 254.667969 C 104.828125 251.417969 101.992188 247.851562 99.351562 244.019531 Z M 104.730469 247.722656 C 105.644531 248.765625 106.582031 249.789062 107.535156 250.785156 C 116.335938 259.9375 128.144531 262.492188 140.648438 265.195312 C 151.621094 267.570312 162.964844 270.023438 173.757812 276.996094 C 188.351562 286.429688 200.21875 290.988281 212.234375 291.761719 C 197.832031 291.261719 185.105469 285.398438 173.75 278.640625 C 163.40625 272.492188 152.652344 269.851562 142.253906 267.296875 C 129.273438 264.109375 117.015625 261.097656 107.886719 251.492188 C 103.582031 246.960938 99.457031 241.625 95.769531 235.640625 C 98.460938 239.933594 101.460938 243.984375 104.730469 247.726562 Z M 105.007812 249.109375 C 105.824219 250.039062 106.65625 250.957031 107.503906 251.847656 C 116.738281 261.566406 129.070312 264.59375 142.125 267.800781 C 152.488281 270.347656 163.203125 272.980469 173.480469 279.089844 C 187.65625 287.523438 199.882812 291.699219 211.859375 292.21875 C 197.171875 292.039062 184.304688 286.617188 173.460938 280.710938 C 163.777344 275.441406 153.773438 272.710938 144.097656 270.070312 C 130.429688 266.34375 117.519531 262.820312 107.863281 252.546875 C 104.1875 248.640625 100.738281 244.25 97.617188 239.464844 C 99.890625 242.851562 102.355469 246.082031 105.007812 249.109375 Z M 105.273438 250.484375 C 105.992188 251.308594 106.726562 252.117188 107.476562 252.910156 C 117.230469 263.292969 130.210938 266.835938 143.957031 270.585938 C 153.601562 273.21875 163.578125 275.9375 173.207031 281.179688 C 183.261719 286.65625 195.039062 291.71875 208.386719 292.628906 C 197.144531 292.164062 185.488281 288.882812 173.175781 282.785156 C 164.324219 278.398438 155.230469 275.699219 146.4375 273.085938 C 131.890625 268.765625 118.152344 264.683594 107.847656 253.605469 C 104.632812 250.148438 101.601562 246.316406 98.800781 242.191406 C 100.820312 245.082031 102.980469 247.859375 105.277344 250.484375 Z M 106.03125 254.597656 C 106.476562 255.101562 106.925781 255.609375 107.382812 256.109375 C 119.742188 269.660156 136.15625 275.070312 153.535156 280.792969 C 159.722656 282.832031 166.121094 284.9375 172.386719 287.457031 C 185.78125 292.832031 198.550781 295.195312 210.820312 294.550781 C 198.46875 295.566406 185.613281 293.726562 172.3125 288.992188 C 168.183594 287.523438 163.976562 286.128906 159.910156 284.78125 C 140.238281 278.273438 121.664062 272.125 107.789062 256.777344 C 104.015625 252.601562 100.632812 248.164062 97.628906 243.53125 C 100.191406 247.414062 102.996094 251.121094 106.03125 254.59375 Z M 106.273438 255.964844 C 106.628906 256.371094 106.992188 256.777344 107.351562 257.175781 C 121.328125 272.636719 139.980469 278.808594 159.722656 285.34375 C 163.789062 286.6875 167.992188 288.082031 172.117188 289.546875 C 185.527344 294.320312 198.484375 296.175781 210.933594 295.136719 C 198.398438 296.550781 185.347656 295.21875 172.023438 291.066406 L 170.03125 290.445312 C 147.507812 283.4375 124.21875 276.191406 107.769531 257.839844 C 107.488281 257.527344 107.214844 257.21875 106.9375 256.902344 C 104.019531 253.570312 101.347656 250.070312 98.902344 246.453125 C 101.183594 249.769531 103.640625 252.957031 106.277344 255.96875 Z M 106.472656 257.28125 C 106.75 257.601562 107.035156 257.925781 107.320312 258.242188 C 123.878906 276.71875 147.246094 283.992188 169.847656 291.023438 L 171.84375 291.640625 C 185.246094 295.820312 198.375 297.160156 210.988281 295.742188 C 198.285156 297.542969 185.054688 296.714844 171.730469 293.140625 C 149.945312 287.296875 125.3125 278.660156 107.746094 258.898438 C 107.558594 258.6875 107.378906 258.484375 107.195312 258.273438 C 105.214844 256.007812 103.347656 253.671875 101.582031 251.277344 C 103.132812 253.328125 104.765625 255.335938 106.46875 257.28125 Z M 107.710938 261.015625 C 105.746094 258.769531 103.890625 256.457031 102.132812 254.089844 C 103.699219 256.15625 105.339844 258.175781 107.0625 260.140625 L 107.261719 260.371094 C 122.644531 277.777344 144.191406 289.703125 171.308594 295.824219 C 184.09375 298.710938 196.746094 299.226562 208.90625 297.480469 C 172.898438 303.679688 134.054688 291.113281 107.714844 261.015625 Z M 171.441406 295.210938 C 144.460938 289.125 123.023438 277.261719 107.730469 259.957031 L 107.535156 259.738281 C 105.621094 257.546875 103.8125 255.296875 102.089844 252.988281 C 103.570312 254.925781 105.109375 256.820312 106.722656 258.664062 C 106.910156 258.878906 107.097656 259.09375 107.289062 259.304688 C 124.964844 279.191406 149.703125 287.871094 171.574219 293.734375 C 187.121094 297.902344 202.539062 298.367188 217.15625 295.285156 C 202.566406 298.707031 187.105469 298.75 171.441406 295.210938 Z M 258.464844 274.285156 C 258.289062 274.433594 258.113281 274.582031 257.9375 274.726562 C 257.742188 274.886719 257.550781 275.046875 257.355469 275.207031 C 257.191406 275.339844 257.03125 275.472656 256.867188 275.601562 C 256.695312 275.730469 256.527344 275.871094 256.359375 276 C 256.222656 276.109375 256.082031 276.214844 255.945312 276.320312 C 255.753906 276.464844 255.558594 276.605469 255.371094 276.753906 C 255.34375 276.773438 255.3125 276.796875 255.285156 276.816406 C 254.890625 277.109375 254.503906 277.390625 254.109375 277.671875 C 254.089844 277.683594 254.074219 277.699219 254.054688 277.710938 C 253.460938 278.128906 252.871094 278.535156 252.28125 278.933594 C 252.171875 279.007812 252.058594 279.085938 251.953125 279.15625 C 251.632812 279.363281 251.3125 279.59375 250.992188 279.796875 C 250.90625 279.851562 250.828125 279.898438 250.742188 279.957031 C 249.890625 280.5 249.046875 281.007812 248.207031 281.507812 C 247.914062 281.675781 247.628906 281.847656 247.335938 282.011719 C 246.722656 282.367188 246.109375 282.703125 245.5 283.035156 C 245.027344 283.289062 244.5625 283.535156 244.09375 283.773438 C 244.035156 283.804688 243.976562 283.835938 243.917969 283.863281 C 243.78125 283.933594 243.648438 284 243.507812 284.066406 C 211.621094 299.785156 192.671875 280.96875 175.730469 264.144531 C 163.269531 251.765625 148.605469 251.476562 135.667969 251.222656 C 125.105469 251.019531 115.132812 250.820312 108.023438 244.082031 C 104.523438 240.761719 80.84375 216.917969 81.25 180.363281 C 81.339844 175.695312 81.789062 170.90625 82.675781 166.015625 C 82.710938 165.820312 82.746094 165.628906 82.785156 165.433594 C 82.9375 164.621094 83.113281 163.800781 83.289062 162.984375 C 83.460938 162.210938 83.628906 161.4375 83.820312 160.660156 C 83.898438 160.335938 83.984375 160.007812 84.066406 159.683594 C 84.363281 158.515625 84.675781 157.347656 85.019531 156.175781 C 85.019531 156.175781 85.019531 156.175781 85.023438 156.171875 C 85.402344 154.882812 85.816406 153.597656 86.253906 152.308594 C 86.308594 152.160156 86.355469 152.011719 86.410156 151.867188 C 86.769531 150.828125 87.15625 149.785156 87.554688 148.746094 C 87.730469 148.289062 87.90625 147.832031 88.09375 147.375 C 88.277344 146.90625 88.476562 146.441406 88.675781 145.976562 C 88.757812 145.777344 88.839844 145.578125 88.921875 145.378906 C 88.960938 145.292969 88.996094 145.203125 89.035156 145.117188 C 89.300781 144.503906 89.5625 143.886719 89.84375 143.273438 C 89.878906 143.199219 89.90625 143.125 89.941406 143.046875 C 89.960938 143.003906 89.984375 142.960938 90.003906 142.917969 C 90.089844 142.738281 90.175781 142.554688 90.261719 142.375 C 90.472656 141.917969 90.695312 141.460938 90.917969 141.003906 C 90.964844 140.902344 91.015625 140.800781 91.066406 140.703125 C 91.160156 140.507812 91.257812 140.316406 91.351562 140.121094 C 91.429688 139.972656 91.5 139.824219 91.578125 139.675781 C 91.824219 139.183594 92.0625 138.691406 92.320312 138.203125 C 98.207031 127.125 106.09375 117.347656 115.582031 109.042969 C 159.527344 70.585938 227.53125 76.15625 267.179688 121.460938 C 306.828125 166.761719 303.402344 234.988281 259.457031 273.445312 C 259.132812 273.730469 258.796875 274.007812 258.46875 274.292969 Z M 258.464844 274.285156 " clip-rule="nonzero"/></clipPath><linearGradient x1="-153.641473" gradientTransform="matrix(0.142586, 0.280408, -0.280408, 0.142586, 233.044709, 44.799869)" y1="339.92001" x2="866.678033" gradientUnits="userSpaceOnUse" y2="339.92001" id="d77238c161"><stop stop-opacity="1" stop-color="rgb(100%, 100%, 100%)" offset="0"/><stop stop-opacity="1" stop-color="rgb(100%, 100%, 100%)" offset="0.0625"/><stop stop-opacity="1" stop-color="rgb(100%, 100%, 100%)" offset="0.078125"/><stop stop-opacity="1" stop-color="rgb(100%, 100%, 100%)" offset="0.0859375"/><stop stop-opacity="1" stop-color="rgb(100%, 99.368286%, 99.368286%)" offset="0.0898438"/><stop stop-opacity="1" stop-color="rgb(100%, 98.736572%, 98.736572%)" offset="0.09375"/><stop stop-opacity="1" stop-color="rgb(100%, 96.580505%, 96.580505%)" offset="0.0976562"/><stop stop-opacity="1" stop-color="rgb(100%, 94.424438%, 94.424438%)" offset="0.101562"/><stop stop-opacity="1" stop-color="rgb(100%, 92.268372%, 92.268372%)" offset="0.105469"/><stop stop-opacity="1" stop-color="rgb(100%, 90.112305%, 90.112305%)" offset="0.109375"/><stop stop-opacity="1" stop-color="rgb(100%, 87.956238%, 87.956238%)" offset="0.113281"/><stop stop-opacity="1" stop-color="rgb(100%, 85.800171%, 85.800171%)" offset="0.117188"/><stop stop-opacity="1" stop-color="rgb(100%, 83.644104%, 83.644104%)" offset="0.121094"/><stop stop-opacity="1" stop-color="rgb(100%, 81.488037%, 81.488037%)" offset="0.125"/><stop stop-opacity="1" stop-color="rgb(100%, 79.33197%, 79.33197%)" offset="0.128906"/><stop stop-opacity="1" stop-color="rgb(100%, 77.175903%, 77.175903%)" offset="0.132812"/><stop stop-opacity="1" stop-color="rgb(100%, 75.019836%, 75.019836%)" offset="0.136719"/><stop stop-opacity="1" stop-color="rgb(100%, 72.86377%, 72.86377%)" offset="0.140625"/><stop stop-opacity="1" stop-color="rgb(100%, 70.707703%, 70.707703%)" offset="0.144531"/><stop stop-opacity="1" stop-color="rgb(100%, 68.551636%, 68.551636%)" offset="0.148438"/><stop stop-opacity="1" stop-color="rgb(100%, 66.394043%, 66.394043%)" offset="0.152344"/><stop stop-opacity="1" stop-color="rgb(100%, 64.237976%, 64.237976%)" offset="0.15625"/><stop stop-opacity="1" stop-color="rgb(100%, 62.081909%, 62.081909%)" offset="0.160156"/><stop stop-opacity="1" stop-color="rgb(100%, 59.925842%, 59.925842%)" offset="0.164062"/><stop stop-opacity="1" stop-color="rgb(100%, 57.769775%, 57.769775%)" offset="0.167969"/><stop stop-opacity="1" stop-color="rgb(100%, 55.613708%, 55.613708%)" offset="0.171875"/><stop stop-opacity="1" stop-color="rgb(100%, 53.457642%, 53.457642%)" offset="0.175781"/><stop stop-opacity="1" stop-color="rgb(100%, 51.301575%, 51.301575%)" offset="0.179688"/><stop stop-opacity="1" stop-color="rgb(100%, 49.145508%, 49.145508%)" offset="0.183594"/><stop stop-opacity="1" stop-color="rgb(100%, 46.989441%, 46.989441%)" offset="0.1875"/><stop stop-opacity="1" stop-color="rgb(100%, 44.833374%, 44.833374%)" offset="0.191406"/><stop stop-opacity="1" stop-color="rgb(100%, 42.677307%, 42.677307%)" offset="0.195312"/><stop stop-opacity="1" stop-color="rgb(100%, 40.52124%, 40.52124%)" offset="0.199219"/><stop stop-opacity="1" stop-color="rgb(100%, 38.365173%, 38.365173%)" offset="0.203125"/><stop stop-opacity="1" stop-color="rgb(100%, 36.209106%, 36.209106%)" offset="0.207031"/><stop stop-opacity="1" stop-color="rgb(100%, 34.05304%, 34.05304%)" offset="0.210937"/><stop stop-opacity="1" stop-color="rgb(100%, 31.896973%, 31.896973%)" offset="0.214844"/><stop stop-opacity="1" stop-color="rgb(100%, 29.740906%, 29.740906%)" offset="0.21875"/><stop stop-opacity="1" stop-color="rgb(100%, 27.584839%, 27.584839%)" offset="0.222656"/><stop stop-opacity="1" stop-color="rgb(100%, 25.428772%, 25.428772%)" offset="0.226562"/><stop stop-opacity="1" stop-color="rgb(100%, 23.272705%, 23.272705%)" offset="0.230469"/><stop stop-opacity="1" stop-color="rgb(100%, 21.116638%, 21.116638%)" offset="0.234375"/><stop stop-opacity="1" stop-color="rgb(100%, 18.960571%, 18.960571%)" offset="0.238281"/><stop stop-opacity="1" stop-color="rgb(100%, 16.804504%, 16.804504%)" offset="0.242188"/><stop stop-opacity="1" stop-color="rgb(100%, 14.646912%, 14.646912%)" offset="0.246094"/><stop stop-opacity="1" stop-color="rgb(100%, 12.490845%, 12.490845%)" offset="0.25"/><stop stop-opacity="1" stop-color="rgb(100%, 10.334778%, 10.334778%)" offset="0.253906"/><stop stop-opacity="1" stop-color="rgb(100%, 8.178711%, 8.178711%)" offset="0.257812"/><stop stop-opacity="1" stop-color="rgb(100%, 6.022644%, 6.022644%)" offset="0.261719"/><stop stop-opacity="1" stop-color="rgb(100%, 3.866577%, 3.866577%)" offset="0.265625"/><stop stop-opacity="1" stop-color="rgb(100%, 2.145386%, 2.145386%)" offset="0.269531"/><stop stop-opacity="1" stop-color="rgb(100%, 0.424194%, 0.424194%)" offset="0.273438"/><stop stop-opacity="1" stop-color="rgb(100%, 2.481079%, 2.481079%)" offset="0.277344"/><stop stop-opacity="1" stop-color="rgb(100%, 4.53949%, 4.53949%)" offset="0.28125"/><stop stop-opacity="1" stop-color="rgb(100%, 6.5979%, 6.5979%)" offset="0.285156"/><stop stop-opacity="1" stop-color="rgb(100%, 8.656311%, 8.656311%)" offset="0.289062"/><stop stop-opacity="1" stop-color="rgb(100%, 10.713196%, 10.713196%)" offset="0.292969"/><stop stop-opacity="1" stop-color="rgb(100%, 12.771606%, 12.771606%)" offset="0.296875"/><stop stop-opacity="1" stop-color="rgb(100%, 14.830017%, 14.830017%)" offset="0.300781"/><stop stop-opacity="1" stop-color="rgb(100%, 16.888428%, 16.888428%)" offset="0.304688"/><stop stop-opacity="1" stop-color="rgb(100%, 18.946838%, 18.946838%)" offset="0.308594"/><stop stop-opacity="1" stop-color="rgb(100%, 21.005249%, 21.005249%)" offset="0.3125"/><stop stop-opacity="1" stop-color="rgb(100%, 23.062134%, 23.062134%)" offset="0.316406"/><stop stop-opacity="1" stop-color="rgb(100%, 25.120544%, 25.120544%)" offset="0.320312"/><stop stop-opacity="1" stop-color="rgb(100%, 27.178955%, 27.178955%)" offset="0.324219"/><stop stop-opacity="1" stop-color="rgb(100%, 29.237366%, 29.237366%)" offset="0.328125"/><stop stop-opacity="1" stop-color="rgb(100%, 31.295776%, 31.295776%)" offset="0.332031"/><stop stop-opacity="1" stop-color="rgb(100%, 33.354187%, 33.354187%)" offset="0.335938"/><stop stop-opacity="1" stop-color="rgb(100%, 35.411072%, 35.411072%)" offset="0.339844"/><stop stop-opacity="1" stop-color="rgb(100%, 37.469482%, 37.469482%)" offset="0.34375"/><stop stop-opacity="1" stop-color="rgb(100%, 39.527893%, 39.527893%)" offset="0.347656"/><stop stop-opacity="1" stop-color="rgb(100%, 41.586304%, 41.586304%)" offset="0.351563"/><stop stop-opacity="1" stop-color="rgb(100%, 43.644714%, 43.644714%)" offset="0.355469"/><stop stop-opacity="1" stop-color="rgb(100%, 45.703125%, 45.703125%)" offset="0.359375"/><stop stop-opacity="1" stop-color="rgb(100%, 47.76001%, 47.76001%)" offset="0.363281"/><stop stop-opacity="1" stop-color="rgb(100%, 49.81842%, 49.81842%)" offset="0.367188"/><stop stop-opacity="1" stop-color="rgb(100%, 51.876831%, 51.876831%)" offset="0.371094"/><stop stop-opacity="1" stop-color="rgb(100%, 53.935242%, 53.935242%)" offset="0.375"/><stop stop-opacity="1" stop-color="rgb(100%, 55.992126%, 55.992126%)" offset="0.378906"/><stop stop-opacity="1" stop-color="rgb(100%, 58.050537%, 58.050537%)" offset="0.382812"/><stop stop-opacity="1" stop-color="rgb(100%, 60.108948%, 60.108948%)" offset="0.386719"/><stop stop-opacity="1" stop-color="rgb(100%, 62.167358%, 62.167358%)" offset="0.390625"/><stop stop-opacity="1" stop-color="rgb(100%, 64.225769%, 64.225769%)" offset="0.394531"/><stop stop-opacity="1" stop-color="rgb(100%, 66.28418%, 66.28418%)" offset="0.398437"/><stop stop-opacity="1" stop-color="rgb(100%, 68.341064%, 68.341064%)" offset="0.402344"/><stop stop-opacity="1" stop-color="rgb(100%, 70.399475%, 70.399475%)" offset="0.40625"/><stop stop-opacity="1" stop-color="rgb(100%, 72.457886%, 72.457886%)" offset="0.410156"/><stop stop-opacity="1" stop-color="rgb(100%, 74.516296%, 74.516296%)" offset="0.414062"/><stop stop-opacity="1" stop-color="rgb(100%, 76.574707%, 76.574707%)" offset="0.417969"/><stop stop-opacity="1" stop-color="rgb(100%, 78.633118%, 78.633118%)" offset="0.421875"/><stop stop-opacity="1" stop-color="rgb(100%, 80.690002%, 80.690002%)" offset="0.425781"/><stop stop-opacity="1" stop-color="rgb(100%, 82.748413%, 82.748413%)" offset="0.429688"/><stop stop-opacity="1" stop-color="rgb(100%, 84.806824%, 84.806824%)" offset="0.433594"/><stop stop-opacity="1" stop-color="rgb(100%, 86.865234%, 86.865234%)" offset="0.4375"/><stop stop-opacity="1" stop-color="rgb(100%, 88.922119%, 88.922119%)" offset="0.441406"/><stop stop-opacity="1" stop-color="rgb(100%, 90.98053%, 90.98053%)" offset="0.445312"/><stop stop-opacity="1" stop-color="rgb(100%, 93.03894%, 93.03894%)" offset="0.449219"/><stop stop-opacity="1" stop-color="rgb(100%, 95.097351%, 95.097351%)" offset="0.453125"/><stop stop-opacity="1" stop-color="rgb(100%, 97.155762%, 97.155762%)" offset="0.457031"/><stop stop-opacity="1" stop-color="rgb(100%, 99.214172%, 99.214172%)" offset="0.460938"/><stop stop-opacity="1" stop-color="rgb(100%, 97.773743%, 97.773743%)" offset="0.464844"/><stop stop-opacity="1" stop-color="rgb(100%, 96.334839%, 96.334839%)" offset="0.46875"/><stop stop-opacity="1" stop-color="rgb(100%, 94.070435%, 94.070435%)" offset="0.472656"/><stop stop-opacity="1" stop-color="rgb(100%, 91.807556%, 91.807556%)" offset="0.476562"/><stop stop-opacity="1" stop-color="rgb(100%, 89.543152%, 89.543152%)" offset="0.480469"/><stop stop-opacity="1" stop-color="rgb(100%, 87.280273%, 87.280273%)" offset="0.484375"/><stop stop-opacity="1" stop-color="rgb(100%, 85.015869%, 85.015869%)" offset="0.488281"/><stop stop-opacity="1" stop-color="rgb(100%, 82.751465%, 82.751465%)" offset="0.492188"/><stop stop-opacity="1" stop-color="rgb(100%, 80.487061%, 80.487061%)" offset="0.496094"/><stop stop-opacity="1" stop-color="rgb(100%, 78.224182%, 78.224182%)" offset="0.5"/><stop stop-opacity="1" stop-color="rgb(100%, 75.959778%, 75.959778%)" offset="0.503906"/><stop stop-opacity="1" stop-color="rgb(100%, 73.695374%, 73.695374%)" offset="0.507812"/><stop stop-opacity="1" stop-color="rgb(100%, 71.430969%, 71.430969%)" offset="0.511719"/><stop stop-opacity="1" stop-color="rgb(100%, 69.168091%, 69.168091%)" offset="0.515625"/><stop stop-opacity="1" stop-color="rgb(100%, 66.903687%, 66.903687%)" offset="0.519531"/><stop stop-opacity="1" stop-color="rgb(100%, 64.640808%, 64.640808%)" offset="0.523438"/><stop stop-opacity="1" stop-color="rgb(100%, 62.376404%, 62.376404%)" offset="0.527344"/><stop stop-opacity="1" stop-color="rgb(100%, 60.112%, 60.112%)" offset="0.53125"/><stop stop-opacity="1" stop-color="rgb(100%, 57.847595%, 57.847595%)" offset="0.535156"/><stop stop-opacity="1" stop-color="rgb(100%, 55.584717%, 55.584717%)" offset="0.539062"/><stop stop-opacity="1" stop-color="rgb(100%, 53.320312%, 53.320312%)" offset="0.542969"/><stop stop-opacity="1" stop-color="rgb(100%, 51.055908%, 51.055908%)" offset="0.546875"/><stop stop-opacity="1" stop-color="rgb(100%, 48.791504%, 48.791504%)" offset="0.550781"/><stop stop-opacity="1" stop-color="rgb(100%, 46.528625%, 46.528625%)" offset="0.554688"/><stop stop-opacity="1" stop-color="rgb(100%, 44.264221%, 44.264221%)" offset="0.558594"/><stop stop-opacity="1" stop-color="rgb(100%, 42.001343%, 42.001343%)" offset="0.5625"/><stop stop-opacity="1" stop-color="rgb(100%, 39.736938%, 39.736938%)" offset="0.566406"/><stop stop-opacity="1" stop-color="rgb(100%, 37.472534%, 37.472534%)" offset="0.570312"/><stop stop-opacity="1" stop-color="rgb(100%, 35.20813%, 35.20813%)" offset="0.574219"/><stop stop-opacity="1" stop-color="rgb(100%, 32.945251%, 32.945251%)" offset="0.578125"/><stop stop-opacity="1" stop-color="rgb(100%, 30.680847%, 30.680847%)" offset="0.582031"/><stop stop-opacity="1" stop-color="rgb(100%, 28.416443%, 28.416443%)" offset="0.585938"/><stop stop-opacity="1" stop-color="rgb(100%, 26.152039%, 26.152039%)" offset="0.589844"/><stop stop-opacity="1" stop-color="rgb(100%, 23.88916%, 23.88916%)" offset="0.59375"/><stop stop-opacity="1" stop-color="rgb(100%, 21.624756%, 21.624756%)" offset="0.597656"/><stop stop-opacity="1" stop-color="rgb(100%, 19.361877%, 19.361877%)" offset="0.601562"/><stop stop-opacity="1" stop-color="rgb(100%, 17.097473%, 17.097473%)" offset="0.605469"/><stop stop-opacity="1" stop-color="rgb(100%, 14.833069%, 14.833069%)" offset="0.609375"/><stop stop-opacity="1" stop-color="rgb(100%, 12.568665%, 12.568665%)" offset="0.613281"/><stop stop-opacity="1" stop-color="rgb(100%, 10.305786%, 10.305786%)" offset="0.617188"/><stop stop-opacity="1" stop-color="rgb(100%, 8.041382%, 8.041382%)" offset="0.621094"/><stop stop-opacity="1" stop-color="rgb(100%, 5.778503%, 5.778503%)" offset="0.625"/><stop stop-opacity="1" stop-color="rgb(100%, 3.514099%, 3.514099%)" offset="0.628906"/><stop stop-opacity="1" stop-color="rgb(100%, 1.249695%, 1.249695%)" offset="0.632812"/><stop stop-opacity="1" stop-color="rgb(100%, 2.55127%, 2.55127%)" offset="0.636719"/><stop stop-opacity="1" stop-color="rgb(100%, 3.85437%, 3.85437%)" offset="0.640625"/><stop stop-opacity="1" stop-color="rgb(100%, 6.517029%, 6.517029%)" offset="0.644531"/><stop stop-opacity="1" stop-color="rgb(100%, 9.181213%, 9.181213%)" offset="0.648438"/><stop stop-opacity="1" stop-color="rgb(100%, 11.843872%, 11.843872%)" offset="0.652344"/><stop stop-opacity="1" stop-color="rgb(100%, 14.508057%, 14.508057%)" offset="0.65625"/><stop stop-opacity="1" stop-color="rgb(100%, 17.170715%, 17.170715%)" offset="0.660156"/><stop stop-opacity="1" stop-color="rgb(100%, 19.8349%, 19.8349%)" offset="0.664062"/><stop stop-opacity="1" stop-color="rgb(100%, 22.497559%, 22.497559%)" offset="0.667969"/><stop stop-opacity="1" stop-color="rgb(100%, 25.161743%, 25.161743%)" offset="0.671875"/><stop stop-opacity="1" stop-color="rgb(100%, 27.825928%, 27.825928%)" offset="0.675781"/><stop stop-opacity="1" stop-color="rgb(100%, 30.490112%, 30.490112%)" offset="0.679688"/><stop stop-opacity="1" stop-color="rgb(100%, 33.152771%, 33.152771%)" offset="0.683594"/><stop stop-opacity="1" stop-color="rgb(100%, 35.816956%, 35.816956%)" offset="0.6875"/><stop stop-opacity="1" stop-color="rgb(100%, 38.479614%, 38.479614%)" offset="0.691406"/><stop stop-opacity="1" stop-color="rgb(100%, 41.143799%, 41.143799%)" offset="0.695312"/><stop stop-opacity="1" stop-color="rgb(100%, 43.806458%, 43.806458%)" offset="0.699219"/><stop stop-opacity="1" stop-color="rgb(100%, 46.470642%, 46.470642%)" offset="0.703125"/><stop stop-opacity="1" stop-color="rgb(100%, 49.133301%, 49.133301%)" offset="0.707031"/><stop stop-opacity="1" stop-color="rgb(100%, 51.797485%, 51.797485%)" offset="0.710938"/><stop stop-opacity="1" stop-color="rgb(100%, 54.460144%, 54.460144%)" offset="0.714844"/><stop stop-opacity="1" stop-color="rgb(100%, 57.124329%, 57.124329%)" offset="0.71875"/><stop stop-opacity="1" stop-color="rgb(100%, 59.786987%, 59.786987%)" offset="0.722656"/><stop stop-opacity="1" stop-color="rgb(100%, 62.451172%, 62.451172%)" offset="0.726562"/><stop stop-opacity="1" stop-color="rgb(100%, 65.113831%, 65.113831%)" offset="0.730469"/><stop stop-opacity="1" stop-color="rgb(100%, 67.778015%, 67.778015%)" offset="0.734375"/><stop stop-opacity="1" stop-color="rgb(100%, 70.440674%, 70.440674%)" offset="0.738281"/><stop stop-opacity="1" stop-color="rgb(100%, 73.104858%, 73.104858%)" offset="0.742188"/><stop stop-opacity="1" stop-color="rgb(100%, 75.767517%, 75.767517%)" offset="0.746094"/><stop stop-opacity="1" stop-color="rgb(100%, 78.431702%, 78.431702%)" offset="0.75"/><stop stop-opacity="1" stop-color="rgb(100%, 81.09436%, 81.09436%)" offset="0.753906"/><stop stop-opacity="1" stop-color="rgb(100%, 83.758545%, 83.758545%)" offset="0.757812"/><stop stop-opacity="1" stop-color="rgb(100%, 86.421204%, 86.421204%)" offset="0.761719"/><stop stop-opacity="1" stop-color="rgb(100%, 89.085388%, 89.085388%)" offset="0.765625"/><stop stop-opacity="1" stop-color="rgb(100%, 91.748047%, 91.748047%)" offset="0.769531"/><stop stop-opacity="1" stop-color="rgb(100%, 94.412231%, 94.412231%)" offset="0.773438"/><stop stop-opacity="1" stop-color="rgb(100%, 97.07489%, 97.07489%)" offset="0.777344"/><stop stop-opacity="1" stop-color="rgb(100%, 99.739075%, 99.739075%)" offset="0.78125"/><stop stop-opacity="1" stop-color="rgb(100%, 97.715759%, 97.715759%)" offset="0.785156"/><stop stop-opacity="1" stop-color="rgb(100%, 95.692444%, 95.692444%)" offset="0.789062"/><stop stop-opacity="1" stop-color="rgb(100%, 93.42804%, 93.42804%)" offset="0.792969"/><stop stop-opacity="1" stop-color="rgb(100%, 91.163635%, 91.163635%)" offset="0.796875"/><stop stop-opacity="1" stop-color="rgb(100%, 88.899231%, 88.899231%)" offset="0.800781"/><stop stop-opacity="1" stop-color="rgb(100%, 86.636353%, 86.636353%)" offset="0.804688"/><stop stop-opacity="1" stop-color="rgb(100%, 84.371948%, 84.371948%)" offset="0.808594"/><stop stop-opacity="1" stop-color="rgb(100%, 82.10907%, 82.10907%)" offset="0.8125"/><stop stop-opacity="1" stop-color="rgb(100%, 79.844666%, 79.844666%)" offset="0.816406"/><stop stop-opacity="1" stop-color="rgb(100%, 77.580261%, 77.580261%)" offset="0.820312"/><stop stop-opacity="1" stop-color="rgb(100%, 75.315857%, 75.315857%)" offset="0.824219"/><stop stop-opacity="1" stop-color="rgb(100%, 73.052979%, 73.052979%)" offset="0.828125"/><stop stop-opacity="1" stop-color="rgb(100%, 70.788574%, 70.788574%)" offset="0.832031"/><stop stop-opacity="1" stop-color="rgb(100%, 68.525696%, 68.525696%)" offset="0.835938"/><stop stop-opacity="1" stop-color="rgb(100%, 66.261292%, 66.261292%)" offset="0.839844"/><stop stop-opacity="1" stop-color="rgb(100%, 63.996887%, 63.996887%)" offset="0.84375"/><stop stop-opacity="1" stop-color="rgb(100%, 61.732483%, 61.732483%)" offset="0.847656"/><stop stop-opacity="1" stop-color="rgb(100%, 59.469604%, 59.469604%)" offset="0.851562"/><stop stop-opacity="1" stop-color="rgb(100%, 57.2052%, 57.2052%)" offset="0.855469"/><stop stop-opacity="1" stop-color="rgb(100%, 54.940796%, 54.940796%)" offset="0.859375"/><stop stop-opacity="1" stop-color="rgb(100%, 52.676392%, 52.676392%)" offset="0.863281"/><stop stop-opacity="1" stop-color="rgb(100%, 50.413513%, 50.413513%)" offset="0.867188"/><stop stop-opacity="1" stop-color="rgb(100%, 48.149109%, 48.149109%)" offset="0.871094"/><stop stop-opacity="1" stop-color="rgb(100%, 45.88623%, 45.88623%)" offset="0.875"/><stop stop-opacity="1" stop-color="rgb(100%, 43.621826%, 43.621826%)" offset="0.878906"/><stop stop-opacity="1" stop-color="rgb(100%, 41.357422%, 41.357422%)" offset="0.882812"/><stop stop-opacity="1" stop-color="rgb(100%, 39.093018%, 39.093018%)" offset="0.886719"/><stop stop-opacity="1" stop-color="rgb(100%, 36.830139%, 36.830139%)" offset="0.890625"/><stop stop-opacity="1" stop-color="rgb(100%, 34.565735%, 34.565735%)" offset="0.894531"/><stop stop-opacity="1" stop-color="rgb(100%, 32.301331%, 32.301331%)" offset="0.898438"/><stop stop-opacity="1" stop-color="rgb(100%, 30.036926%, 30.036926%)" offset="0.902344"/><stop stop-opacity="1" stop-color="rgb(100%, 27.774048%, 27.774048%)" offset="0.90625"/><stop stop-opacity="1" stop-color="rgb(100%, 25.509644%, 25.509644%)" offset="0.910156"/><stop stop-opacity="1" stop-color="rgb(100%, 23.246765%, 23.246765%)" offset="0.914062"/><stop stop-opacity="1" stop-color="rgb(100%, 20.982361%, 20.982361%)" offset="0.917969"/><stop stop-opacity="1" stop-color="rgb(100%, 18.717957%, 18.717957%)" offset="0.921875"/><stop stop-opacity="1" stop-color="rgb(100%, 16.453552%, 16.453552%)" offset="0.925781"/><stop stop-opacity="1" stop-color="rgb(100%, 14.190674%, 14.190674%)" offset="0.929688"/><stop stop-opacity="1" stop-color="rgb(100%, 11.92627%, 11.92627%)" offset="0.933594"/><stop stop-opacity="1" stop-color="rgb(100%, 9.661865%, 9.661865%)" offset="0.9375"/><stop stop-opacity="1" stop-color="rgb(100%, 7.397461%, 7.397461%)" offset="0.941406"/><stop stop-opacity="1" stop-color="rgb(100%, 5.134583%, 5.134583%)" offset="0.945312"/><stop stop-opacity="1" stop-color="rgb(100%, 2.870178%, 2.870178%)" offset="0.949219"/><stop stop-opacity="1" stop-color="rgb(100%, 0.6073%, 0.6073%)" offset="0.953125"/><stop stop-opacity="1" stop-color="rgb(100%, 0.30365%, 0.30365%)" offset="0.957031"/><stop stop-opacity="1" stop-color="rgb(100%, 0%, 0%)" offset="0.960938"/><stop stop-opacity="1" stop-color="rgb(100%, 0%, 0%)" offset="0.96875"/><stop stop-opacity="1" stop-color="rgb(100%, 0%, 0%)" offset="1"/></linearGradient></defs><rect x="-37.5" width="450" fill="#ffffff" y="-37.499999" height="449.999989" fill-opacity="1"/><rect x="-37.5" width="450" fill="#000000" y="-37.499999" height="449.999989" fill-opacity="1"/><g clip-path="url(#5e0a6100e5)"><g clip-path="url(#a54f98371a)"><g clip-path="url(#0a0e427983)"><g clip-path="url(#190eb4c02e)"><path fill="url(#d77238c161)" d="M 260.488281 -23.375 L -20.613281 119.5625 L 124.871094 405.667969 L 405.96875 262.730469 Z M 260.488281 -23.375 " fill-rule="nonzero"/></g></g></g></g><g fill="#ffffff" fill-opacity="1"><g transform="translate(135.675937, 108.769082)"><g><path d="M 7.546875 -7.703125 C 7.398438 -8.242188 7.117188 -8.703125 6.703125 -9.078125 C 6.285156 -9.460938 5.800781 -9.734375 5.25 -9.890625 C 4.707031 -10.054688 4.164062 -10.066406 3.625 -9.921875 C 3.09375 -9.773438 2.628906 -9.492188 2.234375 -9.078125 C 1.847656 -8.660156 1.578125 -8.179688 1.421875 -7.640625 C 1.265625 -7.097656 1.257812 -6.554688 1.40625 -6.015625 C 1.550781 -5.484375 1.832031 -5.019531 2.25 -4.625 C 2.664062 -4.238281 3.144531 -3.960938 3.6875 -3.796875 C 4.238281 -3.640625 4.78125 -3.632812 5.3125 -3.78125 C 5.851562 -3.925781 6.316406 -4.207031 6.703125 -4.625 C 7.097656 -5.039062 7.375 -5.523438 7.53125 -6.078125 C 7.6875 -6.628906 7.691406 -7.171875 7.546875 -7.703125 Z M 9.171875 -3.921875 L 10.15625 -4.75 L 11.40625 -5.09375 L 11.90625 -3.265625 L 7.15625 -1.96875 C 6.78125 -1.75 6.378906 -1.582031 5.953125 -1.46875 C 5.242188 -1.269531 4.523438 -1.222656 3.796875 -1.328125 C 3.066406 -1.441406 2.382812 -1.679688 1.75 -2.046875 C 1.113281 -2.410156 0.5625 -2.875 0.09375 -3.4375 C -0.363281 -4.007812 -0.6875 -4.65625 -0.875 -5.375 C -1.082031 -6.101562 -1.128906 -6.828125 -1.015625 -7.546875 C -0.910156 -8.273438 -0.675781 -8.953125 -0.3125 -9.578125 C 0.0390625 -10.210938 0.503906 -10.757812 1.078125 -11.21875 C 1.648438 -11.6875 2.289062 -12.019531 3 -12.21875 C 3.726562 -12.414062 4.453125 -12.457031 5.171875 -12.34375 C 5.898438 -12.238281 6.578125 -12.003906 7.203125 -11.640625 C 7.835938 -11.285156 8.382812 -10.820312 8.84375 -10.25 C 9.3125 -9.6875 9.648438 -9.039062 9.859375 -8.3125 C 10.054688 -7.550781 10.09375 -6.789062 9.96875 -6.03125 C 9.84375 -5.269531 9.578125 -4.566406 9.171875 -3.921875 Z M 9.171875 -3.921875 "/></g></g></g><g fill="#ffffff" fill-opacity="1"><g transform="translate(159.239492, 103.663162)"><g><path d="M 6.578125 -11.265625 L 8.96875 -11.421875 L 9.390625 -4.8125 C 9.484375 -3.375 9.160156 -2.265625 8.421875 -1.484375 C 7.679688 -0.703125 6.601562 -0.265625 5.1875 -0.171875 C 3.789062 -0.078125 2.675781 -0.375 1.84375 -1.0625 C 1.007812 -1.75 0.546875 -2.8125 0.453125 -4.25 L 0.03125 -10.859375 L 2.421875 -11.015625 L 2.828125 -4.75 C 2.867188 -4.019531 3.046875 -3.457031 3.359375 -3.0625 C 3.671875 -2.675781 4.226562 -2.507812 5.03125 -2.5625 C 5.851562 -2.613281 6.394531 -2.847656 6.65625 -3.265625 C 6.914062 -3.691406 7.023438 -4.269531 6.984375 -5 Z M 6.578125 -11.265625 "/></g></g></g><g fill="#ffffff" fill-opacity="1"><g transform="translate(181.529329, 103.526175)"><g><path d="M 3.328125 0.359375 L 0.953125 0.109375 L 2.109375 -10.65625 L 4.484375 -10.40625 Z M 3.328125 0.359375 "/></g></g></g><g fill="#ffffff" fill-opacity="1"><g transform="translate(197.55616, 105.969413)"><g><path d="M 9.453125 -1.078125 L 12.015625 -0.328125 C 11.566406 0.316406 11.007812 0.84375 10.34375 1.25 C 9.6875 1.65625 8.96875 1.914062 8.1875 2.03125 C 7.414062 2.15625 6.628906 2.101562 5.828125 1.875 C 5.097656 1.65625 4.453125 1.3125 3.890625 0.84375 C 3.328125 0.382812 2.867188 -0.160156 2.515625 -0.796875 C 2.160156 -1.441406 1.941406 -2.125 1.859375 -2.84375 C 1.773438 -3.570312 1.84375 -4.300781 2.0625 -5.03125 C 2.269531 -5.769531 2.601562 -6.421875 3.0625 -6.984375 C 3.519531 -7.554688 4.066406 -8.015625 4.703125 -8.359375 C 5.347656 -8.710938 6.03125 -8.929688 6.75 -9.015625 C 7.476562 -9.109375 8.207031 -9.046875 8.9375 -8.828125 C 9.738281 -8.597656 10.429688 -8.222656 11.015625 -7.703125 C 11.609375 -7.191406 12.070312 -6.59375 12.40625 -5.90625 C 12.75 -5.21875 12.941406 -4.488281 12.984375 -3.71875 L 10.421875 -4.453125 C 10.335938 -4.972656 10.097656 -5.4375 9.703125 -5.84375 C 9.316406 -6.257812 8.859375 -6.539062 8.328125 -6.6875 C 7.773438 -6.851562 7.222656 -6.859375 6.671875 -6.703125 C 6.128906 -6.546875 5.648438 -6.265625 5.234375 -5.859375 C 4.828125 -5.460938 4.539062 -4.960938 4.375 -4.359375 C 4.195312 -3.773438 4.171875 -3.203125 4.296875 -2.640625 C 4.429688 -2.078125 4.6875 -1.582031 5.0625 -1.15625 C 5.4375 -0.726562 5.898438 -0.429688 6.453125 -0.265625 C 6.992188 -0.109375 7.539062 -0.101562 8.09375 -0.25 C 8.644531 -0.40625 9.097656 -0.679688 9.453125 -1.078125 Z M 9.453125 -1.078125 "/></g></g></g><g fill="#ffffff" fill-opacity="1"><g transform="translate(219.831941, 113.784728)"><g><path d="M 5.21875 -2.75 L 2.96875 1.546875 L 0.84375 0.4375 L 5.875 -9.15625 L 8 -8.046875 L 5.75 -3.75 L 11.015625 -6.453125 L 13.734375 -5.03125 L 7.53125 -2.140625 L 8.84375 4.640625 L 5.984375 3.140625 Z M 5.21875 -2.75 "/></g></g></g><g fill="#ffffff" fill-opacity="1"><g transform="translate(238.476216, 124.936622)"><g><path d="M 5.84375 0.890625 L 1.9375 -2.125 L 2.734375 -3.171875 L 6.640625 -0.15625 Z M 5.84375 0.890625 "/></g></g></g><g fill="#ffffff" fill-opacity="1"><g transform="translate(251.698159, 136.096391)"><g><path d="M 8.59375 4.046875 L 10.375 6.03125 C 9.664062 6.34375 8.921875 6.492188 8.140625 6.484375 C 7.359375 6.484375 6.609375 6.332031 5.890625 6.03125 C 5.179688 5.726562 4.550781 5.269531 4 4.65625 C 3.488281 4.09375 3.109375 3.460938 2.859375 2.765625 C 2.617188 2.078125 2.519531 1.367188 2.5625 0.640625 C 2.601562 -0.078125 2.773438 -0.769531 3.078125 -1.4375 C 3.390625 -2.101562 3.828125 -2.691406 4.390625 -3.203125 C 4.960938 -3.710938 5.59375 -4.085938 6.28125 -4.328125 C 6.976562 -4.566406 7.6875 -4.664062 8.40625 -4.625 C 9.132812 -4.59375 9.832031 -4.421875 10.5 -4.109375 C 11.164062 -3.804688 11.753906 -3.375 12.265625 -2.8125 C 12.816406 -2.195312 13.207031 -1.515625 13.4375 -0.765625 C 13.664062 -0.0234375 13.742188 0.722656 13.671875 1.484375 C 13.597656 2.253906 13.367188 2.984375 12.984375 3.671875 L 11.1875 1.6875 C 11.40625 1.195312 11.453125 0.675781 11.328125 0.125 C 11.210938 -0.425781 10.972656 -0.90625 10.609375 -1.3125 C 10.210938 -1.75 9.742188 -2.039062 9.203125 -2.1875 C 8.660156 -2.332031 8.109375 -2.34375 7.546875 -2.21875 C 6.984375 -2.09375 6.472656 -1.820312 6.015625 -1.40625 C 5.554688 -0.988281 5.234375 -0.507812 5.046875 0.03125 C 4.867188 0.570312 4.820312 1.117188 4.90625 1.671875 C 5 2.234375 5.242188 2.734375 5.640625 3.171875 C 6.015625 3.585938 6.476562 3.875 7.03125 4.03125 C 7.582031 4.195312 8.101562 4.203125 8.59375 4.046875 Z M 8.59375 4.046875 "/></g></g></g><g fill="#ffffff" fill-opacity="1"><g transform="translate(266.55451, 154.418152)"><g><path d="M 7.03125 3.8125 L 9.671875 0.6875 L 5.65625 1.453125 Z M 5.5 9.390625 L 4.203125 7.1875 L 5.703125 5.40625 L 3.625 1.84375 L 1.328125 2.28125 L 0.046875 0.0625 L 11.59375 -1.609375 L 12.625 0.140625 Z M 5.5 9.390625 "/></g></g></g><g fill="#ffffff" fill-opacity="1"><g transform="translate(276.982259, 174.676512)"><g><path d="M 4.765625 1.875 L 1.109375 3.15625 L 0.3125 0.90625 L 10.53125 -2.6875 L 11.125 -1 L 11.328125 -0.4375 L 11.875 1.140625 C 12.070312 1.691406 12.113281 2.253906 12 2.828125 C 11.894531 3.398438 11.648438 3.914062 11.265625 4.375 C 10.878906 4.84375 10.359375 5.191406 9.703125 5.421875 C 9.140625 5.617188 8.597656 5.6875 8.078125 5.625 C 7.554688 5.570312 7.09375 5.421875 6.6875 5.171875 C 6.289062 4.921875 5.960938 4.597656 5.703125 4.203125 L 2.96875 8.46875 L 1.96875 5.59375 L 4.765625 1.890625 Z M 9.984375 1.390625 L 9.5625 0.1875 L 6.53125 1.25 L 6.953125 2.453125 C 7.066406 2.773438 7.300781 3.03125 7.65625 3.21875 C 8.019531 3.414062 8.445312 3.429688 8.9375 3.265625 C 9.414062 3.097656 9.738281 2.820312 9.90625 2.4375 C 10.070312 2.0625 10.097656 1.710938 9.984375 1.390625 Z M 9.984375 1.390625 "/></g></g></g><g fill="#ffffff" fill-opacity="1"><g transform="translate(282.796294, 194.479457)"><g><path d="M 9.40625 4.15625 L 0.859375 5.5 L 0.5 3.140625 L 9.046875 1.796875 L 8.5625 -1.265625 L 10.71875 -1.609375 L 12.046875 6.84375 L 9.890625 7.1875 Z M 9.40625 4.15625 "/></g></g></g><g fill="#ff1919" fill-opacity="1"><g transform="translate(137.628782, 214.123594)"><g><path d="M 31.046875 -62.09375 C 26.753906 -62.09375 22.726562 -61.289062 18.96875 -59.6875 C 15.21875 -58.082031 11.921875 -55.859375 9.078125 -53.015625 C 6.234375 -50.171875 4.007812 -46.875 2.40625 -43.125 C 0.800781 -39.375 0 -35.347656 0 -31.046875 C 0 -27.054688 0.707031 -23.273438 2.125 -19.703125 C 3.550781 -16.128906 5.519531 -12.945312 8.03125 -10.15625 C 10.539062 -7.375 13.488281 -5.117188 16.875 -3.390625 C 20.269531 -1.671875 23.90625 -0.601562 27.78125 -0.1875 L 15.34375 6.453125 C 13.769531 7.296875 12.40625 8.273438 11.25 9.390625 C 10.101562 10.515625 9.078125 11.894531 8.171875 13.53125 L 8.8125 13.984375 C 10.195312 11.984375 11.613281 10.648438 13.0625 9.984375 C 14.519531 9.316406 16.109375 9.070312 17.828125 9.25 C 19.554688 9.4375 21.453125 9.832031 23.515625 10.4375 C 25.515625 11.039062 27.476562 11.71875 29.40625 12.46875 C 31.34375 13.226562 33.382812 13.863281 35.53125 14.375 C 37.6875 14.894531 40.035156 15.15625 42.578125 15.15625 C 44.578125 15.15625 46.484375 14.742188 48.296875 13.921875 C 50.109375 13.109375 51.554688 11.78125 52.640625 9.9375 C 53.734375 8.09375 54.128906 5.65625 53.828125 2.625 L 53.015625 2.625 C 52.648438 4.75 51.800781 6.203125 50.46875 6.984375 C 49.144531 7.773438 47.617188 8.171875 45.890625 8.171875 C 44.160156 8.171875 42.453125 8.019531 40.765625 7.71875 C 37.671875 7.175781 34.550781 6.492188 31.40625 5.671875 C 28.257812 4.859375 25.113281 4.539062 21.96875 4.71875 L 30.953125 0 L 31.046875 0 C 35.347656 0 39.375 -0.800781 43.125 -2.40625 C 46.875 -4.007812 50.171875 -6.234375 53.015625 -9.078125 C 55.859375 -11.921875 58.082031 -15.21875 59.6875 -18.96875 C 61.289062 -22.726562 62.09375 -26.753906 62.09375 -31.046875 C 62.09375 -35.347656 61.289062 -39.375 59.6875 -43.125 C 58.082031 -46.875 55.859375 -50.171875 53.015625 -53.015625 C 50.171875 -55.859375 46.875 -58.082031 43.125 -59.6875 C 39.375 -61.289062 35.347656 -62.09375 31.046875 -62.09375 Z M 21.0625 -58.640625 C 23.96875 -59.734375 26.929688 -60.019531 29.953125 -59.5 C 32.984375 -58.988281 35.921875 -57.8125 38.765625 -55.96875 C 41.609375 -54.125 44.175781 -51.71875 46.46875 -48.75 C 48.769531 -45.78125 50.617188 -42.390625 52.015625 -38.578125 C 53.410156 -34.765625 54.164062 -31 54.28125 -27.28125 C 54.40625 -23.5625 53.953125 -20.082031 52.921875 -16.84375 C 51.890625 -13.601562 50.375 -10.800781 48.375 -8.4375 C 46.382812 -6.082031 43.9375 -4.390625 41.03125 -3.359375 C 38.125 -2.328125 35.140625 -2.066406 32.078125 -2.578125 C 29.023438 -3.097656 26.09375 -4.28125 23.28125 -6.125 C 20.46875 -7.96875 17.910156 -10.359375 15.609375 -13.296875 C 13.316406 -16.234375 11.472656 -19.609375 10.078125 -23.421875 C 8.679688 -27.234375 7.921875 -31.015625 7.796875 -34.765625 C 7.679688 -38.515625 8.125 -41.992188 9.125 -45.203125 C 10.125 -48.410156 11.632812 -51.191406 13.65625 -53.546875 C 15.6875 -55.910156 18.15625 -57.609375 21.0625 -58.640625 Z M 21.0625 -58.640625 "/></g></g></g><g fill="#ff1919" fill-opacity="1"><g transform="translate(174.978317, 244.477705)"><g><path d="M 54.46875 -53.75 L 51.109375 -44.9375 C 47.960938 -49.65625 44.675781 -53.191406 41.25 -55.546875 C 37.832031 -57.910156 34.414062 -59.304688 31 -59.734375 C 27.582031 -60.160156 24.269531 -59.796875 21.0625 -58.640625 C 17.613281 -57.367188 14.890625 -55.398438 12.890625 -52.734375 C 10.890625 -50.078125 9.507812 -47.050781 8.75 -43.65625 C 8 -40.269531 7.757812 -36.804688 8.03125 -33.265625 C 8.300781 -29.722656 8.984375 -26.441406 10.078125 -23.421875 C 11.648438 -19.066406 14.097656 -15.359375 17.421875 -12.296875 C 20.753906 -9.242188 24.582031 -7.082031 28.90625 -5.8125 C 33.238281 -4.539062 37.675781 -4.445312 42.21875 -5.53125 C 44.875 -6.195312 47.367188 -7.285156 49.703125 -8.796875 C 52.035156 -10.316406 54.046875 -12.285156 55.734375 -14.703125 L 56.375 -14.25 C 53.707031 -9.46875 50.117188 -5.894531 45.609375 -3.53125 C 41.109375 -1.175781 36.34375 0 31.3125 0 C 26.894531 0 22.78125 -0.769531 18.96875 -2.3125 C 15.15625 -3.851562 11.828125 -6.03125 8.984375 -8.84375 C 6.140625 -11.664062 3.929688 -14.96875 2.359375 -18.75 C 0.785156 -22.53125 0 -26.628906 0 -31.046875 C 0 -35.398438 0.816406 -39.453125 2.453125 -43.203125 C 4.085938 -46.960938 6.34375 -50.265625 9.21875 -53.109375 C 12.09375 -55.953125 15.421875 -58.160156 19.203125 -59.734375 C 22.984375 -61.304688 27.019531 -62.09375 31.3125 -62.09375 C 35.550781 -62.09375 39.710938 -61.363281 43.796875 -59.90625 C 47.878906 -58.457031 51.4375 -56.40625 54.46875 -53.75 Z M 54.46875 -53.75 "/></g></g></g></svg>